<svg xmlns="http://www.w3.org/2000/svg" viewBox="0 0 1080 1080">
  <defs>
    <style>
      .cls-1{
        fill:#fff
      }
      .cls-2{
        fill:#fbc694
      }
      .cls-6{
        fill:#503c30
      }
      .cls-9{
        fill:#1a1a1a
      }
      .cls-10{
        fill:#7e8083
      }
      .cls-11{
        fill:#d1d3d4
      }
      .cls-12{
        fill:#f1f2f2
      }
      .cls-14{
        fill:#3c2516
      }
      .cls-15{
        fill:#d82844
      }
      .cls-16{
        fill:#808285
      }
      .cls-19{
        fill:#cd203e
      }
      .cls-22{
        fill:#e83858
      }
    </style>
  </defs>
  <title>
    Recurso 3
  </title>
  <g id="Capa_1" data-name="Capa 1">
    <g id="dra">
      <g id="fondo">
        <rect class="cls-1" width="1080" height="1080"/>
      </g>
      <g id="cara">
        <path class="cls-2" d="M736.5,348.68A36.6,36.6,0,0,0,733,337.06c-4-8-10.53-11.1-19.27-9.11-2.91.66-2.91.66-4.66-1.79h0a131.69,131.69,0,0,0-8.44-13c-2.18-3.08-4.16-6.32-6.9-9h0a16.91,16.91,0,0,0-1.07-1.75c-15.46-19.61-33.51-36.24-55.52-48.33-1.39-.19-1.59,1.06-2.14,1.83s-1.2,1.07-2,.59a37.53,37.53,0,0,1-5.81-4.2c-1.31-1.12.63-2.61-.24-3.86-.69-.43-1.35-.88-2.06-1.27-26.21-14.51-53.05-27.76-80.14-40.54-23.39-11-47.39-20.76-70.44-32.88-.55.69-1.22,1.48-1.84,2.3q-27.07,36.1-54.14,72.2C408.79,261,399.52,274,391.85,288a133.75,133.75,0,0,0-7.74,15.54,79.58,79.58,0,0,0-5.67,12.92h0a50.63,50.63,0,0,0-3.3,9.1,2.52,2.52,0,0,1-2.13,2.21c-5.15,1.17-8.44,4.59-10.78,9.12a32.2,32.2,0,0,0-3.16,9.54,114.47,114.47,0,0,0,1.63,47.31,63.58,63.58,0,0,0,9.54,21.51A20.89,20.89,0,0,0,382.8,424c2.62.59,3.52,1.73,4.18,4.1a275.5,275.5,0,0,0,20.88,53c13.22,25.37,29.94,48,51.87,66.6,3.71,3.15,7.6,6.1,11.4,9.14,3.78,4.08,8.69,6.52,13.42,9.2a126.06,126.06,0,0,0,55.54,16.71c23.3,1.32,45.13-4.31,65.7-15.12a6.53,6.53,0,0,0,2.85-2.46c.79-.49,1.57-1,2.37-1.46a175.88,175.88,0,0,0,38.86-31.44c18.46-19.68,32.63-42.17,43.73-66.67a285.48,285.48,0,0,0,14.06-38.17c.42-1.43.66-2.74,2.72-3a20.61,20.61,0,0,0,14.15-8.65A54.34,54.34,0,0,0,732,401.57C738.2,384.35,738.92,366.64,736.5,348.68ZM460.92,416l-.06,0h.06Z"/>
        <path d="M576.37,517.27C571.95,523.8,566.45,529,559,532a24.91,24.91,0,0,1-15.9,1c-10.48-2.71-17.88-9.24-23-18.54-.89-1.61-1.68-3.27-2.51-4.91a32.29,32.29,0,0,1,14.67-4.81,60,60,0,0,1,36.73,7.58C571.51,513.77,574.38,514.89,576.37,517.27Z" style="fill:#f2716c"/>
        <path d="M576.37,517.27c-1.52,0-2.58-1-3.73-1.71a64.8,64.8,0,0,0-24.81-9.6c-8.86-1.36-17.57-.9-26,2.39-1.38.54-2.66,1.48-4.28,1.18a93,93,0,0,1-7.44-31.62,3,3,0,0,1,3.06,1c1.12,1.36,1,3.07,1.25,4.65.69,4.78,3.4,7.66,7.92,9.19a90.37,90.37,0,0,0,21.54,4c10.18.86,20.4.89,30.62.79,8.22-.08,10.51-1.87,12.18-9.81a9.59,9.59,0,0,1,1-3.31c.83-.78,1.9-.73,3.51-1.23A107.34,107.34,0,0,1,576.37,517.27Z" style="fill:#7e1917"/>
        <path class="cls-1" d="M587.68,484.41a15.17,15.17,0,0,1-3.8,12c-1.67,1.93-4.33,2.06-6.79,2.1-8.7.14-17.39-.11-26.08-.44a115.65,115.65,0,0,1-24.44-3,50.27,50.27,0,0,1-7.2-2.51,8.92,8.92,0,0,1-5.46-6.72,21.36,21.36,0,0,1-.77-6.88c3.14.37,6,1.67,9,2.6a135.76,135.76,0,0,0,26.79,5.62,43.87,43.87,0,0,0,7.65,0c8.53-.62,17.08-1.11,25.54-2.51A45.15,45.15,0,0,1,587.68,484.41Z"/>
        <path d="M553.94,396.72c-.15,4.88-1,9.48-4.69,13-1.27,1.19-2.52,2.41-3.69,3.7-4.24,4.69-4.71,8.79-2.46,14,2.5,5.81,7.12,9.54,12.32,12.74.77.47,1.74.62,2.34,1.46-.5.75-1.28.44-1.81.31a73.77,73.77,0,0,1-12.17-4,20.66,20.66,0,0,1-7.11-5.45,9.71,9.71,0,0,1-2.15-9.68c1.76-6,5.78-10.33,10.35-14.09C548.9,405.36,552.64,402.09,553.94,396.72Z" style="fill:#edb57e"/>
        <path class="cls-6" d="M489.59,317.93a55,55,0,0,0-17.91-12.19,27.57,27.57,0,0,0-13-2.37,20.11,20.11,0,0,1-2.25.08h0a14.54,14.54,0,0,0-5.23.78,31.57,31.57,0,0,0-9.3,4.58c-2.11,1.63-4.2,3.28-6.24,5a8.73,8.73,0,0,1-7.78,1.74,18,18,0,0,1-4.5-1.8,5.56,5.56,0,0,0-.68-.76c-.34-.27-.77-.67-1.18-.26s0,.85.26,1.19a5.23,5.23,0,0,0,.78.65h0c1.34,2.13,3.48,3.52,5.24,5.31a5,5,0,0,1-4.12.78,18.24,18.24,0,0,1-5.82-2.08,3.72,3.72,0,0,0-2.41-1.69,3.92,3.92,0,0,0,1.63,2.47h0a17.06,17.06,0,0,0,3.82,4c3.67,2.91,7.57,3.33,11.65.93a44.76,44.76,0,0,0,4.05-2.7c2.42-1.8,4.7-3.8,7.2-5.5a30,30,0,0,1,11.53-4.43s.83-.16,1.67-.36a8.47,8.47,0,0,1,2.6-.19c2.73.23,5.45.54,8.16,1,7.3,1.27,14.11,4,21,6.7a3.11,3.11,0,0,0,2.69,1A3.21,3.21,0,0,0,489.59,317.93Z"/>
        <path class="cls-6" d="M684.63,316.17c-.16-.1-.6.14-.84.33a3.72,3.72,0,0,0-.59.77h0l-1.44,1.36h0c-.53.27-1.06.53-1.59.77a2.84,2.84,0,0,1-3.45-4.25l.08-.11a3.08,3.08,0,0,1,.65-.67,1.39,1.39,0,0,0,.68-1.61,1.71,1.71,0,0,0-1.51.63,2.88,2.88,0,0,1-.95.69l-.61.27a11.85,11.85,0,0,1-12.57-2,40.56,40.56,0,0,0-16-8.85,3,3,0,0,0-.78-.11H643a2.55,2.55,0,0,1-.43,0c-2.62-.46-5.25-.07-7.87,0-.19.14-.35.34-.56.39-9.82,2.39-17.76,7.93-24.86,14.88-.48.32-1.42.57-.83,1.27s1.14,0,1.58-.53c10.06-4.49,20.38-8,31.5-8.38a3.36,3.36,0,0,1,.82.06,71.89,71.89,0,0,1,7.93,1.94c4,1.59,7.42,4.17,10.74,6.86,1.36,1.1,2.7,2.21,4.14,3.19a12.18,12.18,0,0,0,15.72-1.55,20,20,0,0,0,1.72-2.08A3.31,3.31,0,0,0,684,318a3.47,3.47,0,0,0,.63-.72C684.76,316.94,685.16,316.49,684.63,316.17Z"/>
        <path class="cls-1" d="M701,314.22c-2.18-3.08-4.16-6.32-6.9-9a209.71,209.71,0,0,0-26.91-4.94c-8.76-1-17.54-1.28-26.32-1.79-4.62-.27-9.25.23-13.88.45a174,174,0,0,0-61.78,14.79,5.56,5.56,0,0,1-4,.24c-7.15-1.8-14.44-2.69-21.66-.88-5.21,1.31-9.6.42-14.55-1.67-20.61-8.7-42.36-12.32-64.64-13-4.51-.13-9,.26-13.54.45a233.93,233.93,0,0,0-30,3c-8,1.38-15.94,3.06-23.18,7a2.91,2.91,0,0,1-3.47-.41c-1.89-1.33-4.14-2.56-6.05-3.88a82.63,82.63,0,0,0-5.67,13.21c.25,1,1.09,1.56,1.77,2.37q3.9,4.67,7.79,9.33c1,1.15,2.13,2.23,2.1,3.88,0,2.33.5,4.61.53,6.91A100.09,100.09,0,0,0,395,367.65c3.93,13.1,10.25,24.76,20.9,33.78,2.84,2.41,10.73,8.25,11.84,8.81,2.58,1.29,5.32,2.2,8,3.29,6.72,2.47,13.78,3.32,20.81,4.32,1.61,0,20.41-1.13,28.17-2.9,17.41-4,30.48-13.57,38.92-29.36,6.69-12.52,9.49-26,10.07-40.08.23-5.56.09-11.14,0-16.71a2.7,2.7,0,0,1,2.09-3.06,39.56,39.56,0,0,1,23.59-.73c2.89.81,2.88.78,2.9,3.73,0,3.71-1.08,7.41-.49,11.09.75,4.71.43,9.46,1.1,14.19,1.64,11.56,4.42,22.7,10.18,33,8.45,15.08,21.33,24.09,38,27.88,3.47.79,13,3.08,14.4,3.13,2.79.09,5.57-.21,8.36-.06a44.86,44.86,0,0,0,6.25-.16c6.08-.9,12.19-1.67,18.07-3.57,3.15-1.15,6.31-2.27,9.38-3.62,2.83-1.81,6.21-2.79,8.31-5.67,2.79-2.42,5.78-4.65,8.34-7.3a67.11,67.11,0,0,0,14-22.18,102.84,102.84,0,0,0,7.06-36.59c.06-3.87.28-7.67,3.58-10.44.32-.27.43-.81.64-1.22A131.69,131.69,0,0,0,701,314.22ZM524.51,339.58c-.44,12.91-2,25.62-7.62,37.48-7,14.74-18.37,24.17-34.22,28.06-3.58.88-12,2.06-12.56,2.08-10.84.38-21.55-.46-31.8-4.23a52.23,52.23,0,0,1-29.24-25.82c-5.19-10-7.63-20.74-8.69-31.92a130.21,130.21,0,0,1-.46-16.65c.14-4.38.88-8.73,1.28-13.1.13-1.45,1.21-1.84,2.21-2.4,4.52-2.5,9.48-3.72,14.47-4.74a152.69,152.69,0,0,1,22-3c3-.17,6-.75,9-.48l3.28-.22h0c2.82-1,5.72-.55,8.57-.27,1.62.16,3.22.29,4.84.34a148.4,148.4,0,0,1,55.16,12.53,3.68,3.68,0,0,1,2.58,3.28C523.91,326.88,524.73,333.21,524.51,339.58ZM696,338.45c-.74,13.72-2.94,27.12-9.6,39.43a54.23,54.23,0,0,1-18.09,19.79,6.54,6.54,0,0,1-2.81,1.3l-.08,0c-.29.13-.46.41-.7.6a1.07,1.07,0,0,1-.55.09,2.55,2.55,0,0,0-.84.61c-7,3.78-14.57,5.45-22.4,6.38-4,.48-13.43.76-16.1.21l-3-.4c-17.16-1.47-30.83-9-40.13-24.18-4.93-8.06-7.45-16.95-9-26.14a96.94,96.94,0,0,1-1.35-21.82c.26-4.38.59-8.77,1.1-13.14.3-2.55,1.61-3.56,3.61-4.4a139.54,139.54,0,0,1,17-6.12c13.06-3.57,26.26-6,39.79-6,.69,0,1.38.08,2.07.13h0c2.7-.09,5.39-.5,8.08,0h3.32c5.69-.28,11.28.69,16.91,1.22a129.2,129.2,0,0,1,20.44,3.65,38.26,38.26,0,0,1,8.73,3.36,3.9,3.9,0,0,1,2.24,3.23A124.33,124.33,0,0,1,696,338.45Z"/>
      </g>
      <g id="cuello">
        <path d="M467.07,602.24c2-3.45,2.52-7.33,3-11.2.56-4.31,1.24-8.61,1-13l.25-1.5c.68-4,.14-8.08.29-12.11.11-3.05.44-3.32,3.14-1.75a188,188,0,0,0,19.93,10.62c19.09,8.25,38.81,13.56,59.78,11.95a138.73,138.73,0,0,0,47.17-12.56c.84-.39,1.66-.84,2.5-1.22,3.66-1.66,4.06-1.37,4.13,2.69,0,1.72-.33,3.47.26,5.17.55,6.43,1,12.87,2.74,19.13a8.7,8.7,0,0,0,1.3,3.16,19.09,19.09,0,0,1,2.28,2.86v0a5.59,5.59,0,0,1,.74.73l0,0a6.67,6.67,0,0,1,.74.73l0,0a4.89,4.89,0,0,1,.77.83,130.49,130.49,0,0,1,14.73,20.57c.5,1.8-.12,3.45-.69,5.09-6.9,19.52-20.14,32.55-40,38.51-12.34,3.7-24.8,7.1-37.66,8.55a106.68,106.68,0,0,1-28.11-.17c-14.25-2.18-28.38-5.16-41.82-10.44-17.52-6.87-28.79-19.83-34.6-37.65a9.5,9.5,0,0,1-.56-3.76A121.4,121.4,0,0,1,463.58,606a3.87,3.87,0,0,1,.76-.86l0,0a6.83,6.83,0,0,1,.74-.74l0,0a6.58,6.58,0,0,1,.73-.74l0,0a9.23,9.23,0,0,1,.72-.75v0A4.89,4.89,0,0,0,467.07,602.24Z" style="fill:#fcc68a"/>
        <path d="M608.54,579.34c-1-1.08-.49-2.42-.61-3.65s.21-2.78-.26-4.16c-1.16-.62-2,.26-2.84.7-10.88,5.59-22.5,9.08-34.34,11.79a111,111,0,0,1-32.75,2.2,104.28,104.28,0,0,1-22-4.25,156.58,156.58,0,0,1-28.09-10.86,144.56,144.56,0,0,1-13-7.38,4.19,4.19,0,0,0-2.7-1.16c0,3.6,0,7.16,0,10.72,0,1.12.37,2.35-.62,3.29l-.2-20.16a15.48,15.48,0,0,1,4.48,2.61,131,131,0,0,0,44,19.3,115.16,115.16,0,0,0,16,2.6c4.52.41,9,.44,13.51.53,7.08.14,14-1,20.94-2.36,13.66-2.64,26.34-7.91,38.59-14.36l.16,12.4Z" style="fill:#efb67d"/>
      </g>
      <g>
        <path class="cls-2" d="M695.44,315.58a4,4,0,0,0-2.27-3.27,38.69,38.69,0,0,0-8.84-3.41,130.58,130.58,0,0,0-20.69-3.7c-5.7-.53-11.36-1.53-17.12-1.24h-3.36c-2.73-.53-5.45-.11-8.18,0h0c-.7,0-1.4-.13-2.1-.13a145.13,145.13,0,0,0-34.78,4.61A158.13,158.13,0,0,0,575.41,316c-2.07.86-3.43,1.87-3.74,4.49-.51,4.44-.85,8.89-1.12,13.33A98.52,98.52,0,0,0,571.93,356c1.57,9.33,4.12,18.34,9.11,26.52,9.84,16.09,24.5,23.7,43,24.7h0c1,.87,2.21.6,3.35.62a99.54,99.54,0,0,0,13.6-.59c7.92-.95,15.59-2.65,22.67-6.48a2.58,2.58,0,0,1,.85-.62,1.08,1.08,0,0,0,.56-.1c.24-.2.41-.48.71-.61l.08,0a6.61,6.61,0,0,0,2.84-1.32A55,55,0,0,0,687,378c6.74-12.49,9-26.08,9.72-40A126.36,126.36,0,0,0,695.44,315.58Zm-22.73,5a1.75,1.75,0,0,0,.11.37l-.38-.12Z"/>
      </g>
      <g id="ojo-de">
        <circle class="cls-9" cx="633.5" cy="353.5" r="22.5"/>
        <circle class="cls-10" cx="638.72" cy="363.54" r="3.62"/>
        <circle class="cls-1" cx="643.14" cy="349.48" r="11.25"/>
      </g>
      <g>
        <path class="cls-2" d="M524,320.35a3.72,3.72,0,0,0-2.61-3.31,149.73,149.73,0,0,0-55.66-12.65c-1.63-.06-3.26-.19-4.89-.35-2.87-.28-5.8-.77-8.64.27h0l-3.3.22h0c-3-.28-6,.31-9.06.48a154.06,154.06,0,0,0-22.16,3c-5,1-10,2.26-14.6,4.78-1,.56-2.1,1-2.23,2.42-.4,4.41-1.14,8.8-1.29,13.22a131.38,131.38,0,0,0,.46,16.8c1.08,11.28,3.53,22.08,8.77,32.21a52.7,52.7,0,0,0,29.51,26.06c10.34,3.81,21.15,4.65,32.09,4.27a2.41,2.41,0,0,0,1.6-.59h0c3.8.29,7.45-.62,11.07-1.51,16-3.92,27.48-13.44,34.53-28.31,5.68-12,7.25-24.79,7.69-37.82C525.52,333.13,524.69,326.74,524,320.35Z"/>
      </g>
      <g id="ojo-iz">
        <circle class="cls-9" cx="460.5" cy="353.5" r="22.5"/>
        <circle class="cls-10" cx="465.72" cy="363.54" r="3.62"/>
        <circle class="cls-1" cx="470.14" cy="349.48" r="11.25"/>
      </g>
      <g id="bata">
        <path class="cls-1" d="M168,1079.95h1c-.44-2.63-.76-5.23-1-7.83Z"/>
        <path class="cls-1" d="M874.62,838.11l-.22.55-.11-.61L874,838l.29.05c-3-16.48-6.31-32.18-9.7-47.87-6.36-29.41-13-58.75-22.64-87.31-3.76-11.13-8.91-21.42-16.71-30.3-10.17-11.59-22-20.73-37.11-24.83-32.51-8.84-64.88-18.15-97.34-27.15-1.53-.43-3.09-1.15-4.74-.37-1.32,1.5-.54,3.06-.12,4.59,2,7.26,4.2,14.45,6.4,21.64a6.29,6.29,0,0,1-1.48,6.65c-4.52,5.12-8.89,10.36-13.35,15.53-1.64,1.9-3.56,3.73-3.49,6.57a12.78,12.78,0,0,0,.87,3.72,246.43,246.43,0,0,1,8.83,31.87c4.74,23.7,8.21,47.56,8.33,71.8,0,4.18-.16,8.37.06,12.54.19,3.44.13,7.1,2.64,9.89,4,4.46,8.58,8.34,14.26,10.3,18.1,6.26,30.07,19.14,39.12,35.34.62,1.11,1.41,2.3.71,3.59-1.15,2.13-.42,4.05.44,6,1.26,2.87,2.57,5.73,3.72,8.63,1.92,4.83,4.81,9.29,5.65,14.54a17.33,17.33,0,0,0,1.07,3.31c9.22,25.33,18.06,50.78,24,77.11,2.75,12.11,5.09,24.25,3.86,36.85-1.56,16.12-8.4,28.44-23.44,35.68-8,3.83-16.39,5.77-24.93,7.51-2.2,2.21-4.63,4-7.93,4a4.35,4.35,0,0,0-1,.36c-1,.61-1.83,1.43-2.83,2a10,10,0,0,1-12.9-1.83,18.61,18.61,0,0,1-.06-13.72c.89-1.84,2.51-2.49,4.41-2.8,3.95-.66,7.4.72,10.8,2.43a3.81,3.81,0,0,0,1.5.09c3.25-.95,5.1,1.83,7.61,2.86,11.24-1.32,21.77-4.65,31-11.33a18.72,18.72,0,0,0,6.62-7.52c4.07-9.51,6.34-19.5,5.7-29.84-.57-9.17-3-18.08-5.34-27-5-18.74-10.72-37.28-16.58-55.76-2.17-6.85-3.8-13.89-6.85-20.45-3.18-4.21-5-9.15-7.34-13.79-2.15-4.2-2.89-9.46-8.22-11.42-.6-.22-.91-1-1.29-1.61a91.23,91.23,0,0,0-15.8-18c-8.46-7.53-18-13.15-29.52-14.54-12.58-1.53-24.45,1.21-35.63,7-3.07,1.58-6.24,3.16-8.2,6.24-2.64,7.69-4.5,15.61-6.61,23.44Q630,903.1,619,943.42,608.55,982.24,598,1021c-.4,1.45-.86,2.92-.29,4.44a5.89,5.89,0,0,0,2.41,2.43,67.52,67.52,0,0,0,28.36,9.34c2.38-1.23,4.28-3.72,7.46-2.8a3.72,3.72,0,0,0,1.49-.11c1.32-.47,2.5-1.23,3.8-1.73,4.61-1.74,8.9-.93,11.37,2.11a18.62,18.62,0,0,1-.05,13.71,3.68,3.68,0,0,1-1.63,1.7c-5.27,3.32-9.81,1.38-14.17-1.94a4.4,4.4,0,0,0-1-.34c-3.37.11-5.61-2-7.89-4-4.43-.89-8.88-1.66-13.22-3a74.21,74.21,0,0,1-18-8.11c-1.21-.76-2.73-2.27-4.09,0a121.9,121.9,0,0,0-2.36,21c-.26,6.72,0,13.46-.08,20.19,0,3.79-.39,4.12-4.23,4.19s-7.66,0-11.49,0h-71c-6.58,0-6.58,0-6.58-6.74q0-9.75,0-19.49a18,18,0,0,0-.82-6.18c-.46-1.2-.94-2.38-1.29-3.61C484,1005,472.84,967.93,461.91,930.84Q440.14,857,418.25,783.18c-1.75-5.9-3.38-11.84-5.27-17.7-.41-1.27-.56-3.44-2-3.22-1.73.27-1.2,2.45-1.23,3.86A20.72,20.72,0,0,1,409,772a88.93,88.93,0,0,0-.94,14.22c.05,20.78,0,41.56,0,62.34,0,1.74,0,3.48.11,5.22,1,13.88,1,27.8,1.94,41.69.79,11.68,1.23,23.39,2.44,35,1.11,3.05,4.05,2.83,6.4,3.43,25.19,6.37,41.69,31.7,38.31,56.78-3.48,25.82-27,48-57.73,44.21-25.42-3.13-44.62-24.2-45-50.88a49.31,49.31,0,0,1,9.79-30.33A51.88,51.88,0,0,1,389.78,935c2.29-.8,4.85-1.32,5.08-4.45-.32-10.55-1.6-21-2.26-31.57-.74-11.81-1.6-23.63-1.7-35.44-.31-35.51-.76-71,2.58-106.47,1.7-18,3.43-36.05,6.88-53.86,1.7-8.79,4.38-17.33,6.2-26.09,0-2.55-1.53-4.3-3-6.07-5.22-6.2-10.64-12.23-15.8-18.48a6,6,0,0,1-1.3-6c2-7,3.7-14.12,5.56-21.17.45-1.7,1.33-3.68-1.07-4.83a6.15,6.15,0,0,0-3.43.28c-10.11,3.09-20.28,6-30.43,8.93-19.18,5.6-38.19,11.89-57.59,16.61-17.77,4.32-31.62,14-43.28,27.54-8.05,9.37-12.84,20.4-16.64,31.93-7.71,23.42-13.34,47.4-18.76,71.44-4.15,18.41-7.84,36.9-11.48,55.51L209,832c-5,8.73-12,57-18,80-7,31-9,60-15,91-1,8-8,61.71-8,69.12.24,2.59.56,5.2,1,7.83H914C914,1041.61,881.15,855.14,874.62,838.11Z"/>
        <path class="cls-11" d="M593.29,1031.73c-.4,3.66-.81,7.33-1.18,11-.32,3.22-.79,6.43-.84,9.66-.12,7.89,0,15.78,0,23.67,0,3.09-.05,3.14-3.08,3.14q-44.74,0-89.47,0c-3,0-3-.06-3-3.21,0-7.19,0-14.39,0-21.59,0-3.12.19-6.26-.67-9.32-3.7-16.56-5-33.47-7.21-50.25q-5.92-45.58-11.6-91.2-6.42-51.13-13-102.25c-4.3-33.62-8.44-67.26-12.86-100.86-1.26-9.55-2.36-19.12-3.61-28.68a8.67,8.67,0,0,1,.17-3.79c.37-.94.94-1.29,1.82-.55A10.52,10.52,0,0,1,451,670.6a163.47,163.47,0,0,0,22.6,31.24c9.14,9.78,19.29,18.17,33.18,20.34,14.94,2.34,25.52-3.49,31.53-17.33.64-1.48.53-4.15,2.54-4,1.81.11,1.87,2.67,2.47,4.25,4.74,12.49,16.72,19.25,30,17.38,11.72-1.65,21.05-7.63,29.42-15.4,10.8-10,19.24-22,26.79-34.55.67-1.11,1-3.83,3.5-1.73.4,5.37-.65,10.64-1.23,15.92-2.78,25-5.4,50.08-8.16,75.11-2.24,20.3-4.42,40.61-6.64,60.92-1.71,15.58-3.27,31.17-5.14,46.72a14.68,14.68,0,0,0,0,2.43,2.34,2.34,0,0,1-.25,1.63c-.65.17-.91.5-.39,1.11-.24,3.34-3,5.95-2.73,9.44-7.21,20.37-14.62,40.68-20.31,61.54-3.37,12.33-6.65,24.69-8.21,37.41-1.25,10.24-.83,20.36,2.32,30.28a32.52,32.52,0,0,0,8.92,14.72C592.16,1029,593.51,1029.94,593.29,1031.73Z"/>
        <path class="cls-12" d="M447.54,667.25c0,5.8,1.23,11.46,1.94,17.18.54,4.35,1,8.71,1.58,13.05.6,4.69,1.27,9.36,1.87,14.05.57,4.46,1.06,8.93,1.62,13.4.6,4.8,1.24,9.6,1.85,14.4.55,4.35,1.08,8.7,1.63,13,.6,4.69,1.22,9.37,1.82,14.06.57,4.46,1.09,8.93,1.67,13.39.84,6.52,1.73,13,2.56,19.54.57,4.46,1.06,8.93,1.62,13.4.6,4.8,1.24,9.6,1.84,14.41.56,4.46,1.07,8.93,1.65,13.39.61,4.68,1.31,9.36,1.91,14,.56,4.35,1,8.71,1.57,13.06.83,6.52,1.73,13,2.56,19.54.57,4.46,1.07,8.93,1.62,13.4.6,4.8,1.24,9.6,1.84,14.41.56,4.46,1.07,8.93,1.65,13.39.61,4.68,1.3,9.36,1.91,14,.55,4.23,1.06,8.47,1.55,12.71.79,6.76,1.57,13.51,2.63,20.23.72,4.55,1,9.17,1.58,13.75s1.23,9.14,1.82,13.71,1.08,8.93,1.65,13.39,1.31,9.13,1.78,13.72c.52,5,1.55,10,1.69,15.13-1-1.2-1.09-2.73-1.51-4.16-2.65-9-5.39-17.93-8-26.91s-5.28-18.2-7.94-27.3c-2.54-8.65-5.12-17.29-7.67-25.94-2.81-9.53-5.59-19.08-8.4-28.61-2.06-7-4.19-14-6.25-20.94-2.82-9.53-5.58-19.08-8.4-28.61-2.73-9.2-5.54-18.37-8.25-27.57-4-13.63-8-27.29-12-40.92-2.72-9.2-5.53-18.38-8.26-27.57-2.14-7.2-4.2-14.42-6.32-21.63a4.36,4.36,0,0,0-1.3-2.45c0,2.1,0,3.89,0,5.67,0,1,.28,2.12-.65,2.94-1.77-2.4-1.1-5.17-.89-7.73,1.13-13.73,2-27.49,4.07-41.14a254.87,254.87,0,0,1,21.13-71.1,118.7,118.7,0,0,1,6.28-12.4c.61-1,1.09-2.08,2.38-2.37,1.66.77,1.67,2.44,1.84,3.85,1,7.9,2.13,15.77,3.09,23.66A5,5,0,0,1,447.54,667.25Z"/>
        <path class="cls-12" d="M614.27,885.55c1.58,0,1.71-1.32,2.18-2.32q4.74-9.89,9.45-19.79c.58-1.23,1-2.39,2.77-1.35,1.09.65,1.34-.42,1.68-1.12a56.7,56.7,0,0,1,7-11.21,49.56,49.56,0,0,1,10.95-10.62q-7,25.91-14,51.83c-5,18.27-10,36.51-15,54.78-3.48,12.81-6.81,25.66-10.27,38.47s-7,25.62-10.5,38.41a9.55,9.55,0,0,0-.36,2.73c-2.93.34-3.52-1.92-4.35-3.93-.47-6.65.92-13.17,1.6-19.72,1.9-18.45,4-36.88,5.95-55.32,1-9.45,1.84-18.92,3.31-28.32a35.46,35.46,0,0,0,.17-4.16c.24-3.74,1.81-7.15,2.81-10.69,1.29-4.55,3-9,4.25-13.55C612.37,888.13,612.73,886.48,614.27,885.55Z"/>
        <path class="cls-12" d="M438.73,610.31c-4.22,6.35-8.61,12.59-12.42,19.21a231.65,231.65,0,0,0-19.8,45.36,2.93,2.93,0,0,1-.69,1.55,7.33,7.33,0,0,0-2.16-3.89c-4.62-5.46-9.35-10.83-14-16.24-1.36-1.57-2.49-3.32-4-4.78-1.16-1.12-.79-2.51-.41-3.9,2.09-7.8,4.11-15.62,6.2-23.42.31-1.15.79-2.23-.47-3.11.82-.58,1.8-1,1.88-2.23a12.11,12.11,0,0,1,.58-2.35c.78-2.91.77-3,3.83-3.21q17.13-1.31,34.26-2.54C433.88,610.59,436.3,610.46,438.73,610.31Z"/>
        <path class="cls-12" d="M674.77,675.07c-2.6-6.29-5.07-12.64-7.81-18.86a249.85,249.85,0,0,0-26.33-45.58c5.1,0,10.09,1,15.12,1.59,8.48.94,16.93,2.22,25.42,3.08,2.39.24,3.56,1.09,3.89,3.35a3.56,3.56,0,0,0,1,1.8c-.23,2.76,1.09,5.18,1.78,7.72,1.79,6.57,3.79,13.09,5.83,19.59a3.88,3.88,0,0,1-.65,4.11c-1.8,2.1-3.55,4.25-5.34,6.37-3.87,4.58-7.73,9.18-11.67,13.71A4.74,4.74,0,0,0,674.77,675.07Z"/>
        <path d="M448.3,627.4c1.19,1.63,1.41,3.64,2.08,5.47,7,19.05,20.12,31.48,39.62,37.27a294.5,294.5,0,0,0,32.69,7.79,50.23,50.23,0,0,0,10,1.15c6.94-.17,13.87.35,20.82-.58a227.42,227.42,0,0,0,25.77-5.33c7.06-1.79,14.18-3.49,20.77-6.71a57.08,57.08,0,0,0,19.16-14.65c6.07-7.26,9.81-15.64,12.58-24.55a61.94,61.94,0,0,1,5.39,8.44c-1,9.85-2.06,19.7-3.12,29.55-.18,1.71-.16,3.5-1.76,4.68-2.35,2.59-3.72,5.82-5.59,8.72a198.89,198.89,0,0,1-13.93,19,108.42,108.42,0,0,1-9.55,10.1c-7.1,6.64-15,12-24.55,14.57-7.58,2-15.1,2-22.34-1.47-6.85-3.25-11.18-8.78-13.92-15.69-.43-1.07-.77-2.18-1.17-3.27a6.54,6.54,0,0,0-.69-1,45,45,0,0,1-3.3,8,25.4,25.4,0,0,1-16,13.46c-6.75,2.11-13.48,1.41-20.14-.56-7.36-2.18-13.64-6.24-19.44-11.15-13.18-11.16-22.82-25.11-31.51-39.82a13.82,13.82,0,0,0-2.59-3.65c-1-2.52-.94-5.22-1.31-7.84-1.05-7.32-1.93-14.67-2.9-22,0-.31-.35-.58-.53-.87C444.52,633.42,446,630.18,448.3,627.4Z" style="fill:#a7a9ac"/>
        <path class="cls-12" d="M632.26,669.94c1.06-6.17,1.53-12.4,2.17-18.62q.73-7.08,1.46-14.16a1.47,1.47,0,0,1,1.24-1.45,259.2,259.2,0,0,1,31.94,86.91c1.69,9.59,2.62,19.28,3.6,29a26.83,26.83,0,0,1,0,2.77c-.27.22-.76-.44-.93.34-3.44,15.41-8.16,30.48-12.07,45.77-1.17,4.58-3.13,9-2.94,13.88a82.4,82.4,0,0,0-17,10.65,92.33,92.33,0,0,0-22.06,27.86c-.58,1.1-1.43,2.18.18,3.27.95.64.15,1.48-.15,2.16-2.13,4.87-4.29,9.73-6.45,14.59-1-1-.67-2.21-.55-3.3.57-5.38,1.34-10.74,1.87-16.12q.39-4,.83-7.91c.65-5.84,1.23-11.68,2-17.51.35-2.73.5-5.51.81-8.26.65-5.84,1.2-11.68,2-17.51.36-2.62.46-5.28.76-7.92.7-6.06,1.3-12.14,2.08-18.19.69-5.37.94-10.8,1.52-16.18.55-5.15,1.32-10.28,1.92-15.42.36-3.09.53-6.21.85-9.3s.58-6.43,1.13-9.6c.42-2.39.37-4.81.76-7.22.86-5.34,1-10.78,1.61-16.17.55-5.15,1.24-10.29,1.93-15.42.28-2.06.34-4.15.52-6.2C631.65,677.06,632.48,673.54,632.26,669.94Z"/>
        <path class="cls-12" d="M610.92,873.61l-.28.65C610.12,873.77,610.57,873.71,610.92,873.61Z"/>
        <path class="cls-1" d="M656.75,814.34c-1.73-.29-1.47-1.43-1.14-2.63q2.5-9.17,5-18.34,3.3-12.17,6.6-24.35c1.45-5.33,2.93-10.66,4.41-16,.81,0,.36,1.21,1.1,1.36,1.34,8.17.75,16.43,1,24.65.22,6.37.48,12.75.07,19.12a7,7,0,0,1-1.24,4.26C668.24,807.61,663.45,812.24,656.75,814.34Z"/>
        <path class="cls-11" d="M594.63,1022.15a13.54,13.54,0,0,1-4.2-6.26,82.27,82.27,0,0,1-4.66-22.37c-.37-7.22,1.21-14.28,2.87-21.27,4.2-17.7,9.49-35.1,14.95-52.45.69-2.19.91-4.55,2.21-6.53.27,4.18-.66,8.25-1.16,12.36-.3,2.51-.51,5-.81,7.56-.9,7.54-1.39,15.14-2.26,22.68-.74,6.4-1.53,12.79-2.1,19.22-.64,7.21-1.8,14.38-2.61,21.58-.6,5.38-.87,10.8-1.55,16.16A68.32,68.32,0,0,0,594.63,1022.15Z"/>
        <path class="cls-14" d="M168,1079.95"/>
      </g>
      <g id="cabello">
        <path class="cls-15" d="M637.19,253.75a3.52,3.52,0,0,0-.47.51c-2.41,4-2.41,4-6.1,1.34q-1.7-1.21-3.39-2.43c-2.07-1.5-2.06-1.5-.85-3.79.22-.41.39-.84.58-1.26,5-8.74,10.06-17.47,15-26.22,6.13-10.78,12.21-21.58,18.32-32.37.45-.8,1-1.54,1.57-2.39,3.12,1.28,5.71,3.23,8.51,4.83,1.4.8,1.06,1.81.4,2.94-2.16,3.71-4.28,7.43-6.41,11.15Z"/>
        <path class="cls-14" d="M887.61,770.28a198.1,198.1,0,0,0-8.7-34.36c-4.49-13.43-10-26.47-15.4-39.55a67.78,67.78,0,0,1-5.06-31,156.5,156.5,0,0,1,3.64-23c3.11-14,6.36-28,7.65-42.44,1.39-15.59-2.2-29.44-12.4-41.48-4.14-4.88-8.47-9.57-12.8-14.26a193,193,0,0,1-23.06-30.09c-7.75-12.64-11.12-26.4-11.31-41.09-.17-13.07,1.71-25.93,3.79-38.77,2.44-15.12,5.31-30.18,6.28-45.51a121,121,0,0,0-.74-24c-1.51-11.11-4.87-21.7-9.07-32.05-5.68-14-12.69-27.36-19.41-40.85-9.11-18.28-17.66-36.8-24.34-56.14-6.27-18.15-10.24-36.83-13.77-55.67a222.17,222.17,0,0,0-36-86.82c-25.76-37.09-60.25-63-102.18-79.22-17.71-6.86-35.9-11.8-54.9-13.41-1-.45-2.15-.14-3.22-.23S554.51.7,553.55,0H538.9c-.67.62-1.5.26-2.26.36H533.2a3.86,3.86,0,0,0-2,.25A178.75,178.75,0,0,0,510.67,4.2c-21,5.29-40.11,14.4-56.54,28.71a5.44,5.44,0,0,1-3.4,1.36A103.55,103.55,0,0,0,397.17,54.8c-14.77,11-25.48,25.26-33.84,41.47-7.94,15.4-14.15,31.52-19.64,47.93-10.86,32.49-19,65.71-26.48,99.11-4,18-7.8,36-11.88,54-4.24,18.72-12,35.79-24.29,50.71-1.55,1.88-3,3.88-4.48,5.79-11.92,14.93-18.85,32.1-22.81,50.62-4.28,20-4,40.14-2.46,60.35.78,10.42,1.7,20.84,1.78,31.3a99.7,99.7,0,0,1-.93,15.29,44.5,44.5,0,0,1-10.88,23.33c-4.14,4.71-8.43,9.3-12.39,14.16-13.19,16.14-20,34.56-19.82,55.54A232.78,232.78,0,0,0,212.28,639c1.65,10.43,3.28,20.86,5.06,31.27a31.05,31.05,0,0,1-1.71,17.4c-1.89,4.61-3.56,9.32-5.46,13.92-5.53,13.4-11.29,26.71-15.36,40.66-2.51,8.61-4.42,17.36-4.23,26.37a114.77,114.77,0,0,0,4.32,28.15c3.37,12.23,8.36,23.84,13.26,35.5.37.89.42,2,1.55,2.56.24-.95.52-1.84.69-2.74q6.16-32.13,13.45-64c4.8-20.91,9.92-41.75,16.69-62.14,3.94-11.87,8.95-23.1,17.39-32.63C268,662,279.51,653,294.34,648.8c2.68-.75,5.42-1.27,8.09-2,22.37-6.52,44.72-13.11,67.09-19.6,7.12-2.07,14.15-4.45,21.39-6.06a2.72,2.72,0,0,0,2.73-2.24c.78-4.39,4-4.87,7.56-5,8-.21,15.94-1,23.9-1.61,4.24-.31,8.59,0,12.76-1.2,2.1-.68,3.44-2.27,4.74-3.92a153.38,153.38,0,0,1,22-23c2.54-2.13,5.79-3.49,7.39-6.65a5.49,5.49,0,0,0,.27-1.7c-.1-6.21.33-12.43-.19-18.65-.69-2.18-2.58-3.22-4.23-4.48a198.7,198.7,0,0,1-32.62-31.75c-15.88-19.38-27.89-41.06-37.36-64.18a261.05,261.05,0,0,1-9.74-28.31c-.84-3-2.11-5.16-5.56-5.85a17.59,17.59,0,0,1-9.15-5.44,40.8,40.8,0,0,1-7.48-11.67c-7.34-16.13-8.09-33.23-7.16-50.52a53.47,53.47,0,0,1,2-12.35c1.6-5.39,3.95-10.74,9.29-12.83,4.75-1.86,6.57-5,7.57-9.33a24.17,24.17,0,0,1,1.49-4.27c1.87-4.21,3.42-8.56,5.55-12.66a229.81,229.81,0,0,1,20-35c22.06-31.34,45.77-61.46,68.5-92.31,1.2-1.63,2.21-1.51,3.76-.57,9,5.42,18.69,9.32,28.2,13.61,18.51,8.36,37.08,16.61,55.32,25.53,19.4,9.48,38.8,19,57.72,29.4,2.82,1.55,5.42,3.62,8.66,4.36,2-.83,2.63-2.87,3.58-4.52,9.75-17,19.35-34.14,29.05-51.2,3.28-5.76,2.73-4.63,7.31-2,3.81,2.21,3.86,2.47,1.76,6.16q-15.05,26.51-30.23,52.94c-.69,1.2-1.53,2.35-1.39,3.86.8,1.55,2.35,2.2,3.73,3,20.83,12.17,38,28.42,52.58,47.49a261.36,261.36,0,0,1,15.32,22c1.09,2.45,2.85,2.82,5.4,2.26,8.89-2,15.44,1.63,18.91,10.1a39.53,39.53,0,0,1,2.33,8,113.83,113.83,0,0,1,.36,36.37c-1.42,10-4.19,19.49-9.36,28.24-3.38,5.73-7.83,10.2-14.51,11.58-3.15.65-4.5,2.39-5.32,5.16a282.25,282.25,0,0,1-22.12,54,231.77,231.77,0,0,1-38.11,52.52,162.12,162.12,0,0,1-34,27c-1.68,1-3.57,1.8-4.28,3.87a47.66,47.66,0,0,0,0,11.11,3.48,3.48,0,0,0,1.21,1.67c10.93,9,20.22,19.46,28.87,30.58a7,7,0,0,0,3.49,2.76c8.48,1.14,17,1.7,25.46,3.19,6.53,1.15,14.13-.73,19.08,5.78a20.5,20.5,0,0,1,2,.36q42.2,11.8,84.38,23.67c6.8,1.93,13.81,3.2,20.39,5.82,20.65,8.23,35.26,22.93,44.31,43,6.36,14.1,10.17,29.1,14.06,44,8.19,31.44,14.81,63.23,21.06,95.11.54,2.77.8,5.65,1.84,8.29A.94.94,0,0,0,875,840c4.82-12.33,9.26-24.79,11.65-37.85A97.87,97.87,0,0,0,887.61,770.28Z"/>
      </g>
      <g id="estetoscopio">
        <path class="cls-15" d="M608,883.22c-1-.94-.28-1.87.06-2.77.79-2.09,2-4,2.54-6.2a.44.44,0,0,1,.28-.65.56.56,0,0,0,.39-.74c.37-4.27,2.72-7.82,4.32-11.63.82-1.95,1.73-3.78,1-6a4,4,0,0,1,.62-3.32c8-14.7,18.59-27,33.35-35.42,2.12-1.2,4.39-2.08,6.59-3.11,4.57-1.9,8.27-5.05,11.88-8.3a11.43,11.43,0,0,0,3.68-6.89,42.07,42.07,0,0,0,.34-11.75c-.85-7.28-.52-14.55-.52-21.82,0-3.37-.56-6.67-.71-10a288.28,288.28,0,0,0-6-43.35,259.61,259.61,0,0,0-22.15-61.72c-2.21-4.34-4.7-8.53-7-12.79a67.61,67.61,0,0,0-5.44-9,173.68,173.68,0,0,0-14.48-20.21c-.17-.24-.33-.49-.49-.74l-.24-.36-.53-.68-.28-.32a8.57,8.57,0,0,1-.56-.66c-.19-.23-.36-.48-.52-.73-.66-1.12-1.86-1.71-2.64-2.72-3.06-7.07-3.3-14.61-3.79-22.12a2.5,2.5,0,0,1,1.1-2.08,36.46,36.46,0,0,1,6.69,5.43,190.58,190.58,0,0,1,22.7,25.15c.76,1,1.62,2,2.43,2.93a11.27,11.27,0,0,1,3.64,3.64,254.41,254.41,0,0,1,29.23,55.45,31.23,31.23,0,0,1,1.27,5.36c2,6.42,4,12.81,5.86,19.27a305.26,305.26,0,0,1,8.95,45.31c1.08,8.4,2.09,16.8,2.77,25.23.82,10.07.47,20.18.83,30.26.05,1.39.18,2.78.17,4.17a7.53,7.53,0,0,0,2.21,5.33A37.62,37.62,0,0,0,710,814.7a66.39,66.39,0,0,1,32.62,25.48,127.72,127.72,0,0,1,7.57,12.08c.46.87.94,1.72-.24,2.32-1.83.93-1.18,2.15-.59,3.5q4.83,11,9.58,22c.42,1,1.39,2,.27,3.14a7.55,7.55,0,0,1-6.29,2.34c-1.59,0-1.68-1.38-2.15-2.35-3.06-6.37-6.06-12.77-9.15-19.13-.57-1.16-.72-3.15-3.07-1.85-.78.43-1.18-.9-1.59-1.54a97.65,97.65,0,0,0-11.22-14.16,79.68,79.68,0,0,0-14.42-12c-14.56-9.38-30-10-46-4.62a49.36,49.36,0,0,0-17,9.22,42.08,42.08,0,0,1-5.36,5.88,53.67,53.67,0,0,0-9.84,12.55c-1.35,2.33-2.17,5.18-5.57,5.71-1.11.17-1.49,1.7-2,2.74-2.6,5.7-5.3,11.35-8.06,17-.73,1.48-1.29,3.06-3.36,3C611.91,885.48,609.68,885,608,883.22Z"/>
        <path class="cls-15" d="M442.79,636.53a239.89,239.89,0,0,0-22.37,55.37,287.15,287.15,0,0,0-8.54,49.32q-1.21,13.18-2,26.4c-.06,1.15,0,2.32,0,3.47-.93,9.24-.73,18.53-.92,27.8-.34,16.7-.13,33.4.32,50.09.59,22.13,1.53,44.26,3.16,66.34.4,5.43.68,10.87,1,16.31-.51,1.36-1.67,1-2.64.91a57.84,57.84,0,0,0-13.05.57c-1.3.22-3.1,1-3.63-1.29-.77-8.67-1.68-17.33-2.27-26q-2.63-38.75-2.46-77.6c.07-18.58.56-37.15,1.76-55.68,1.29-20,3.12-40,6.25-59.87a263.33,263.33,0,0,1,7.78-33.88c.23-.77.36-1.57.53-2.36,1.25-8.32,4.75-15.9,8-23.55a204.29,204.29,0,0,1,22-39.68,7.37,7.37,0,0,1,2.92-2.88c2.83-3.36,5.65-6.73,8.5-10.08a132.7,132.7,0,0,1,23.86-22.15,2,2,0,0,1,1,2.06c-.68,7.33-.55,14.82-3.85,21.68a5.89,5.89,0,0,1-.65.84l-.35.37c-.22.23-.47.45-.71.66l-.35.31c-.21.21-.44.42-.66.62l-.31.32-.58.68-.26.37c-.16.27-.33.52-.5.78a159.55,159.55,0,0,0-15.09,21C446.46,630.47,445.86,634.35,442.79,636.53Z"/>
        <path class="cls-16" d="M614.27,885.55q-3.74,11.85-7.47,23.71c-.41,1.31-.67,2.67-1,4-2.88,14-8,27.33-11.58,41.11-3,11.33-6.19,22.6-7.45,34.31-.47,4.36.26,8.58,1,12.78,1.27,7.2,2.94,14.33,6.86,20.67a10.66,10.66,0,0,0,3.56,3.2c4.62,3.85,10.11,6,15.72,7.87a104.66,104.66,0,0,0,14.83,3.51c1,2.68.2,5.2-.7,7.71a70.7,70.7,0,0,1-31.8-10.89c-1-.62-2-1.21-2.94-1.81a6.35,6.35,0,0,0-.86-1.07c-7.87-6.36-11.32-15.06-13.08-24.66a80,80,0,0,1,.4-28.67c4.64-26.12,12.73-51.27,21.62-76.19,1.68-4.7,3.37-9.39,5-14.1a19.47,19.47,0,0,1,1.65-3.83A27.56,27.56,0,0,1,614.27,885.55Z"/>
        <path class="cls-16" d="M752.87,885.55a28.66,28.66,0,0,1,6.29-2.33c2.52,5.49,4.31,11.26,6.34,16.93,7.79,21.75,14.76,43.74,19.86,66.3a130.51,130.51,0,0,1,3.56,25.46,62.62,62.62,0,0,1-4.91,26.84,32.1,32.1,0,0,1-10.72,13.06c-10.15,7.48-21.68,11.41-34.18,12.64-.94-2.51-1.74-5-.7-7.72a92.13,92.13,0,0,0,20.76-5.69,39.47,39.47,0,0,0,13.34-8.67,16.29,16.29,0,0,0,3.92-5.71c3.15-9,5.45-18.27,4.87-27.93-.41-6.85-2-13.53-3.65-20.17-4.83-19.37-10.79-38.41-16.71-57.46C758.31,902.56,755.57,894.06,752.87,885.55Z"/>
        <path class="cls-16" d="M394.22,931.82c.36.26.79.8,1.07.73,6-1.44,12.14-1.15,18.24-.93,3.52,1.15,7.23,1.59,10.7,3,19.28,7.76,30.82,21.8,33.88,42.39,4.08,27.43-15,53.49-42.33,58.43-29.31,5.3-57.3-14.49-61.47-43.79a52.41,52.41,0,0,1,36.42-57.92C392,933.31,393.58,933.41,394.22,931.82Z"/>
        <path class="cls-15" d="M730.67,1048.7c-5.19,5.23-11.91,5.46-16.55.57a8.4,8.4,0,0,1,2.32-2.31,8.67,8.67,0,0,0-.05-10.06,7.17,7.17,0,0,1-2.29-2.95c1.62-3.14,4.65-3.2,7.52-3.12a13.06,13.06,0,0,1,8.36,3C734.07,1037.7,734.37,1044,730.67,1048.7Z"/>
        <path class="cls-15" d="M637.18,1033.84a14.23,14.23,0,0,1,11.92-2.71c1.7.34,3.28,1,4,2.81a6.2,6.2,0,0,1-1.62,2l-.63.63-.29.35c-1.7,3.38-2.26,6.73.21,10a8.47,8.47,0,0,1,2.31,2.29c-4.63,4.91-11.4,4.67-16.57-.59C632.9,1044.29,633.22,1037.5,637.18,1033.84Z"/>
        <path class="cls-15" d="M738.43,1036.72c.44,2.55,1.36,5.06.7,7.72-1.51,3.43-4.37,4.3-7.79,4.12,2.34-4.93,1.42-9.84-.06-14.75C734.53,1032.66,736.65,1034.26,738.43,1036.72Z"/>
        <path class="cls-15" d="M628,1044.44c-.61-2.65.23-5.16.7-7.71,1.78-2.42,3.88-4.09,7.13-2.93.19.29.41.65.25.95-2.57,4.55-1.91,9.17-.31,13.81C632.37,1048.77,629.56,1047.81,628,1044.44Z"/>
        <path d="M716.63,1047.88c-.89.37-1.4,1.42-2.51,1.39-2.29-5.1-2.84-10.21,0-15.32,1.37.06,1.38,1.77,2.55,2.07A10.18,10.18,0,0,1,716.63,1047.88Z" style="fill:#c01d3d"/>
        <path d="M651.14,1035.33c.72-.36.93-1.44,1.94-1.38,2.83,5.11,2.3,10.22,0,15.33-1.12,0-1.64-1-2.53-1.39-2.69-3.94-2.34-7.9,0-11.86l0,0C650.68,1035.8,650.94,1035.59,651.14,1035.33Z" style="fill:#c11c3d"/>
        <path class="cls-19" d="M635.8,1048.55c-2.51-4.29-2.89-8.65-.43-13.11a7.91,7.91,0,0,0,.49-1.64l1.31,0c-1.82,2.95-2.21,6.16-2.14,9.57,0,2,1.39,3.4,1.43,5.27Z"/>
        <path class="cls-19" d="M731.28,1033.81a7.93,7.93,0,0,0,.49,1.64c2.46,4.46,2.07,8.82-.43,13.11l-.67.14c-.08-1.56,1-2.73,1.37-4.18.9-3.92-.3-7.35-2.07-10.71Z"/>
        <path d="M455.37,983.7c.54,26.23-21,49.26-48.82,49.48a49.28,49.28,0,1,1-.35-98.55C435.1,934.68,455.86,958.49,455.37,983.7Z" style="fill:#e6e7e8"/>
        <path d="M716.63,1047.88a13.74,13.74,0,0,0,0-11.86A8.68,8.68,0,0,1,716.63,1047.88Z" style="fill:#e73857"/>
        <path class="cls-22" d="M650.47,1036c-.46,1.64-1,3.25-1.35,4.91-.48,2.47.82,4.65,1.4,6.94-3.33-2.33-2.14-5.7-1.85-8.76C648.77,1038,649,1036.55,650.47,1036Z"/>
        <path class="cls-22" d="M651.14,1035.33l-.68.71Z"/>
        <path d="M715.75,1040.82c.58,1,.24,1.92.26,3.06C714.8,1042.43,714.8,1042.43,715.75,1040.82Z" style="fill:#543b41"/>
        <path d="M651.44,1044.09a3.78,3.78,0,0,1,.15-3.66C652.75,1041.87,652.92,1042.91,651.44,1044.09Z" style="fill:#643640"/>
        <path class="cls-16" d="M444.78,983.86c.14,19.81-15.32,38.78-38.8,38.62a38.09,38.09,0,0,1-38.38-38.73,38.51,38.51,0,0,1,38.66-38.47C427.32,945.27,445,962.74,444.78,983.86Z"/>
        <path class="cls-12" d="M406.38,952.66a31.21,31.21,0,1,1-31.32,30.8C375.14,968.44,386.89,953,406.38,952.66Z"/>
        <path d="M406.25,992.81a8.86,8.86,0,0,1-8.92-8.73,9,9,0,0,1,8.85-9.21,9.09,9.09,0,0,1,9,8.79A9,9,0,0,1,406.25,992.81Z" style="fill:#58595b"/>
      </g>
    </g>
  </g>
</svg>
