<svg xmlns="http://www.w3.org/2000/svg" viewBox="0 0 452 452"><defs><style>.cls-1{fill:#fff;}.cls-2{fill:#6e2457;}.cls-3{fill:#65ca00;}</style></defs><title>Recurso 1</title><g id="Capa_2" data-name="Capa 2"><g id="Capa_1-2" data-name="Capa 1"><circle class="cls-1" cx="226" cy="226" r="226"/><g id="Capa_2-2" data-name="Capa 2"><g id="Capa_1-2-2" data-name="Capa 1-2"><path class="cls-2" d="M138.8,255.91s-27.89-53.24,5.07-144.51S240.21,25.2,263,58.16C263,58.16,136.26,40.41,138.8,255.91Z"/><path class="cls-2" d="M189.5,195.06s-7.6-50.71,35.5-68.45,48.17-33,48.17-33,16.44,32.87-25.28,62.47a11.83,11.83,0,0,1-11.25,1.3,49.52,49.52,0,0,1-8.35-4.22,11,11,0,0,0-14.22,1.38c-9.67,10.36-22.36,29.9-6.82,50.63,0,0,20.26,17.75,43.1,27.89,17.61,7.83,9.54,27.74,4.95,36.42-1.19,2.26.35,8.14,2.66,9.21,13.61,6.33,55.35,32.26,53.24,65.92-2.53,40.57-12.67,43.1-33,71,0,0,35.92-10.26,44.53-51.84,4-19.38-.46-39.41-11.48-55.85-6.87-10.25-16.36-20.67-28-24.15a51.5,51.5,0,0,1-11.67-4.92,14.23,14.23,0,0,1-4.73-19.56q.31-.51.67-1c4.08-5.61,8.61-15.05,2.86-24.75A22,22,0,0,0,257.89,224c-12.62-3.91-44.57-15.26-50.66-31.46-5.25-14,4-25.59,10.23-31.42a7,7,0,0,1,8.93-.51c5.65,4.24,16.72,9.5,29-1,17.75-15.2,35.5-35.5,20.26-81.13,0,0-19.34,28-68,46.25-15.47,5.82-26.25,20.4-26.06,36.93C181.75,170.59,183.86,181.65,189.5,195.06Z"/><path class="cls-2" d="M318.8,296.47s-2.53-27.89-35.5-22.82A76.16,76.16,0,0,1,318.8,296.47Z"/><path class="cls-2" d="M273.17,314.22S243.3,296.79,186,335.95a16.12,16.12,0,0,1-4.7,2.24c-4.73,1.34-13.54,2.12-17.17-8.75-5.05-15.22-10.12-142,12.68-147.07,0,0-25.33-5.07-27.89,30.42-2.13,29.76-2.47,105.86-2.52,129.67a17.11,17.11,0,0,0,12.14,16.62c10.48,3,29.19.74,61.38-22.06C219.93,337,258,314.22,273.17,314.22Z"/><path class="cls-3" d="M261.41,336.36c.06-1.29.06-2.48.16-3.66.5-6.07,4.09-9.91,9.35-12.21s10.18-1,14.49,2.56,6.7,8.56,7.83,14.07a55.2,55.2,0,0,1,.15,19.53c-.64,4.3-1.62,8.54-2.44,12.81-.09.46-.16.82-.79.88-8.53.78-17,1.08-25.54-.46a32.81,32.81,0,0,1-14.31-5.73c-3.87-2.91-6.78-6.53-7.68-11.42a13.16,13.16,0,0,1,3.77-11.95,14.81,14.81,0,0,1,6.91-4.39,17.39,17.39,0,0,1,7.2-.09ZM288.17,367c.54-4.19,1.21-8.29,1.58-12.44a45.28,45.28,0,0,0-1.28-16.77c-1.11-3.83-2.76-7.37-6-9.95s-7.07-3.52-11-1.65-6.74,5.07-6.73,9.85c0,1.5.17,3,.26,4.5-1.47-.31-2.93-.69-4.42-.92-4.06-.64-7.3,1-9.8,4-3.52,4.26-3.33,9.6.2,13.88a22.23,22.23,0,0,0,9.93,6.6c8.73,3.21,17.78,3.39,27.21,2.88Z"/></g></g></g></g></svg>